<?xml version="1.0" encoding="UTF-8" ?>
<!-- Generator: Adobe Illustrator 21.1.0, SVG Export Plug-In . SVG Version: 6.00 Build 0)  -->

<svg version="1.1" id="Logo" xmlns="http://www.w3.org/2000/svg" xmlns:xlink="http://www.w3.org/1999/xlink" x="0px" y="0px" viewBox="0 0 30 43" style="enable-background:new 0 0 30 43;" xml:space="preserve">
<style type="text/css">
	.st0{fill:#E30613;}
	.st1{fill:#FFFFFF;}
</style>
<g
   id="JH_1_">
	<path
	class="st1"
   d="m 1.3,41 c 1.1,0.3 3.8,0.6 6,0.6 9.8,0 13.8,-2.7 16,-10.2 L 28.6,13.7 H 20.9 L 16.3,29.5 C 16,30 15.7,31 15.3,31.8 14,34.1 11.5,34.7 8.6,34.7 5.7,34.7 3.2,34.3 3.2,34.3 Z"
   id="path26" />
	<path
   class="st0"
   d="M 29.6,11.3 17.9,0 0,11.3 H 10.1 L 4,31.8 c 0,0 2,0.3 4.8,0.3 2.2,0 3.5,-0.7 4.1,-1.7 0.3,-0.6 0.4,-0.8 0.7,-1.8 l 5.2,-17.4 h 10.8 z"
   id="path44" />
</g>
</svg>
